<?xml version="1.0" standalone="no"?>
<!DOCTYPE svg PUBLIC "-//W3C//DTD SVG 20010904//EN"
 "http://www.w3.org/TR/2001/REC-SVG-20010904/DTD/svg10.dtd">
<svg version="1.0" xmlns="http://www.w3.org/2000/svg"
 width="920.000000pt" height="920.000000pt" viewBox="0 0 920.000000 920.000000"
 preserveAspectRatio="xMidYMid meet">

<g transform="translate(0.000000,920.000000) scale(0.100000,-0.100000)"
fill="#000000" stroke="none">
<path d="M4100 6259 c-250 -14 -482 -109 -814 -331 -567 -380 -1132 -942
-1435 -1430 -135 -215 -256 -485 -296 -658 -24 -106 -20 -244 11 -342 50 -160
154 -267 312 -320 153 -52 308 -48 486 13 50 17 208 85 351 151 621 287 749
324 1115 322 198 -1 322 -16 489 -58 253 -65 598 -208 731 -305 143 -104 234
-202 289 -309 34 -66 96 -228 159 -412 169 -495 251 -659 407 -816 110 -110
260 -174 376 -161 170 20 287 178 495 665 507 1187 668 1664 690 2047 19 317
-98 633 -313 849 -104 105 -192 165 -348 242 -170 83 -283 120 -610 198 -472
113 -586 154 -960 346 -385 198 -536 254 -779 289 -174 26 -220 28 -356 20z
m-324 -1109 c27 -11 57 -28 67 -38 35 -31 69 -102 77 -160 5 -31 16 -79 26
-106 15 -42 16 -56 5 -95 -27 -103 -111 -171 -210 -171 -27 0 -52 -4 -56 -9
-3 -6 15 -22 40 -36 25 -15 45 -31 45 -36 0 -15 -41 -31 -78 -31 -39 0 -134
40 -126 54 3 4 0 8 -6 8 -6 0 -8 5 -5 10 3 6 -4 10 -17 10 -13 0 -43 9 -68 20
l-45 20 27 -24 c21 -19 24 -25 13 -30 -8 -3 -15 -13 -15 -21 0 -10 -5 -13 -12
-9 -9 5 -8 2 1 -9 12 -15 12 -17 -1 -12 -18 7 -44 -20 -28 -30 6 -3 8 -11 5
-16 -7 -10 -16 -47 -17 -66 -1 -7 -5 -10 -10 -7 -4 3 -3 14 2 25 6 10 8 19 5
19 -3 0 0 10 6 23 8 16 8 19 0 11 -6 -6 -13 -19 -15 -30 -2 -10 -11 -32 -20
-48 -8 -16 -12 -34 -9 -39 3 -6 1 -7 -5 -3 -6 4 -10 12 -8 19 1 7 1 9 -1 4 -3
-4 -9 -5 -14 -2 -5 4 -6 -2 -2 -12 5 -14 4 -16 -8 -7 -15 11 -25 11 -51 0 -10
-5 -15 -13 -11 -19 4 -6 1 -7 -8 -1 -26 16 -40 13 -49 -12 -12 -30 -20 -31
-13 -1 3 13 1 17 -4 11 -4 -6 -16 -10 -25 -8 -10 1 -20 -2 -24 -7 -3 -5 -9 -7
-14 -4 -5 3 -11 1 -15 -4 -3 -6 4 -8 15 -6 11 2 18 0 15 -5 -4 -6 -40 -7 -40
0 0 9 -37 5 -44 -4 -8 -9 -7 -13 4 -13 8 0 12 3 10 7 -2 4 2 7 10 7 11 0 12
-4 4 -13 -10 -13 -26 -13 -45 -1 -7 4 -18 -1 -25 -10 -8 -10 -9 -14 -2 -10 6
4 14 3 17 -2 7 -10 -20 -9 -30 2 -4 4 -16 0 -26 -10 -10 -9 -18 -12 -18 -8 0
4 -8 1 -17 -8 -10 -8 -22 -16 -28 -16 -5 0 -11 -5 -13 -13 -2 -9 0 -8 7 2 7 9
11 10 11 3 0 -16 -17 -26 -25 -13 -8 13 -25 3 -25 -13 0 -7 4 -6 11 3 9 13 10
13 6 0 -2 -8 -9 -14 -15 -13 -5 1 -15 -4 -22 -12 -9 -10 -17 -12 -30 -5 -13 7
-21 5 -30 -5 -7 -8 -17 -12 -23 -8 -6 4 -7 1 -3 -6 6 -9 12 -8 26 4 14 12 20
13 26 4 4 -7 3 -10 -3 -6 -6 4 -16 0 -23 -8 -6 -7 -19 -11 -27 -8 -12 5 -14 3
-8 -8 7 -12 6 -12 -7 -1 -12 10 -18 9 -28 -3 -7 -8 -16 -12 -21 -9 -5 3 -13
-6 -18 -19 -12 -31 -27 -41 -37 -26 -4 8 -3 9 4 5 7 -4 12 -5 12 -2 0 16 -20
12 -36 -7 -19 -21 -19 -21 1 -7 19 14 19 14 6 -3 -10 -13 -17 -15 -27 -6 -11
9 -15 7 -20 -7 -13 -35 -35 -54 -53 -45 -16 9 -61 -17 -61 -35 0 -4 10 1 23
12 l22 19 -19 -23 c-11 -12 -21 -20 -24 -17 -3 3 -12 -1 -20 -8 -8 -6 -26 -12
-40 -12 -14 0 -26 -6 -28 -13 -1 -7 0 -8 3 -2 2 5 9 10 15 10 6 0 5 -6 -2 -15
-10 -12 -16 -13 -28 -3 -9 7 -13 8 -10 3 4 -6 -1 -19 -9 -30 -15 -19 -15 -19
-9 5 5 21 4 20 -9 -5 -11 -24 -14 -26 -15 -10 -1 15 -3 16 -7 5 -11 -30 -25
-41 -38 -30 -9 7 -16 5 -26 -7 -13 -16 -12 -17 4 -4 23 18 22 8 -2 -13 -14
-13 -21 -14 -27 -5 -5 8 -3 10 6 4 9 -5 11 -4 6 4 -10 15 -25 5 -36 -25 -6
-15 -15 -22 -25 -18 -8 3 -12 11 -8 18 4 6 -1 5 -10 -3 -9 -7 -17 -10 -17 -5
0 5 -6 2 -13 -6 -7 -9 -21 -15 -31 -15 -11 0 -21 -7 -23 -15 -4 -13 -3 -13 6
0 10 13 11 13 11 0 0 -13 1 -13 11 0 9 13 10 13 6 0 -3 -13 -12 -15 -48 -11
-5 0 -7 7 -3 14 6 9 5 9 -8 0 -8 -7 -19 -9 -23 -5 -5 4 -5 1 -1 -6 4 -7 11
-10 16 -7 4 3 14 -3 21 -13 11 -14 11 -15 -1 -5 -11 10 -17 10 -29 0 -8 -6
-12 -7 -9 -2 3 6 0 16 -8 23 -8 7 -14 8 -14 2 0 -5 -5 -10 -11 -10 -5 0 -7 5
-3 12 4 7 3 8 -5 4 -9 -6 -9 -11 0 -22 10 -12 9 -13 -6 -8 -14 6 -16 4 -10 -7
5 -8 -3 -5 -16 7 -24 21 -69 30 -69 14 0 -5 10 -7 23 -5 15 3 27 -2 36 -18 14
-22 13 -22 -7 -4 -14 13 -22 15 -27 7 -5 -8 -10 -9 -18 -1 -7 7 -14 7 -24 0
-9 -8 -14 -7 -19 5 -3 9 -10 14 -14 11 -4 -3 -13 2 -20 10 -10 12 -10 18 0 31
8 8 9 14 4 13 -5 -1 -12 0 -16 1 -5 1 -14 3 -20 4 -7 0 -13 6 -13 13 0 6 -3
15 -7 19 -4 3 -6 -3 -3 -15 2 -11 -1 -21 -6 -21 -6 0 -7 -5 -3 -11 4 -8 9 -7
15 2 6 10 8 8 6 -8 -2 -12 -6 -25 -10 -28 -4 -3 -5 -2 -2 2 8 10 -16 33 -28
26 -6 -3 -7 -1 -3 5 3 6 -7 26 -23 44 -28 33 -29 34 -8 35 15 2 18 0 8 -6 -9
-6 -10 -11 -2 -15 6 -4 11 -2 11 4 0 6 5 8 11 4 8 -4 7 -9 -2 -15 -9 -6 -10
-9 -2 -9 6 0 14 -8 17 -17 4 -14 4 -14 3 2 -1 11 2 26 6 33 6 8 4 12 -5 10 -8
-2 -13 5 -12 17 1 14 -6 21 -20 23 -16 1 -18 -1 -6 -8 12 -7 10 -9 -6 -8 -23
2 -29 24 -7 26 7 1 20 3 28 4 11 1 12 5 4 14 -7 8 -7 14 0 18 6 4 7 14 4 22
-4 12 -8 13 -14 3 -4 -7 -6 -16 -4 -19 2 -4 -2 -7 -10 -7 -11 0 -12 4 -4 13 6
7 7 19 3 25 -4 8 -3 9 4 5 7 -4 12 -2 12 3 0 6 -5 11 -12 11 -6 0 -8 3 -5 7 4
3 16 -2 27 -12 19 -17 19 -17 7 8 -6 14 -16 23 -20 20 -5 -3 -4 4 2 14 6 11 7
24 3 28 -4 5 -2 5 5 1 7 -4 10 -14 7 -24 -5 -13 -4 -14 4 -3 5 7 9 26 8 41 -1
16 3 27 11 27 6 0 9 -5 6 -10 -3 -6 -1 -7 5 -3 6 4 9 13 6 21 -4 8 -11 12 -18
8 -6 -4 -5 1 3 10 7 9 10 17 6 17 -3 0 3 12 14 26 11 15 18 30 15 35 -3 5 3 6
13 2 15 -6 16 -4 6 9 -14 17 -7 28 16 27 12 0 11 -3 -4 -9 -15 -7 -16 -9 -4
-9 9 -1 23 7 30 16 11 13 11 15 1 9 -10 -6 -12 -1 -9 20 2 15 10 30 18 32 11
3 11 1 -1 -8 -13 -10 -13 -11 0 -7 8 2 13 12 12 22 -3 17 -2 17 15 5 16 -13
15 -11 -2 10 -11 14 -16 22 -10 17 5 -4 15 5 22 20 7 16 11 20 9 11 -3 -10 -1
-20 3 -23 5 -3 8 8 7 25 -2 25 0 27 13 17 12 -10 13 -9 3 10 -10 18 -9 24 8
36 11 7 17 17 12 22 -4 5 -1 5 6 1 7 -4 10 -11 7 -16 -3 -5 -1 -11 4 -15 11
-6 7 27 -5 47 -4 7 -3 8 4 4 11 -7 17 6 13 27 -1 5 3 6 8 3 5 -3 11 3 14 14 3
12 13 20 24 19 13 -1 14 -3 3 -6 -20 -5 -52 -70 -39 -78 5 -4 9 -3 8 2 -4 21
2 34 13 27 6 -4 8 -3 4 4 -3 6 6 23 21 38 16 14 23 24 16 20 -7 -4 -11 1 -10
13 1 14 5 17 13 10 7 -6 15 -4 23 5 9 11 9 16 0 22 -8 5 -9 3 -4 -6 6 -9 4
-11 -4 -6 -9 6 -8 13 6 29 10 12 18 23 19 25 1 2 4 -4 8 -13 4 -11 2 -14 -6
-9 -7 4 -8 3 -4 -5 11 -18 24 -4 21 24 -2 14 1 23 6 19 5 -3 9 3 10 13 0 11 3
13 6 5 3 -7 -1 -20 -9 -30 -12 -15 -11 -16 5 -3 11 9 17 23 15 36 -3 13 1 22
8 22 7 0 11 -9 9 -20 -4 -15 -2 -17 10 -7 19 15 19 15 -2 36 -16 16 -16 17 -1
12 18 -7 42 14 30 27 -4 5 -1 5 6 1 11 -6 10 -12 -3 -26 -13 -14 -14 -20 -3
-26 7 -4 10 -3 5 1 -9 11 53 76 65 69 5 -3 7 0 6 8 -2 7 2 12 8 11 7 -1 10 9
7 25 -3 23 -2 24 6 7 9 -19 10 -18 11 5 2 14 2 29 1 33 -1 5 3 6 8 2 6 -3 9
-11 7 -18 -1 -7 -1 -8 2 -4 2 4 11 2 20 -5 10 -7 14 -8 9 -3 -9 11 22 47 35
39 4 -3 7 0 6 7 -2 7 2 13 9 14 17 0 21 7 25 37 4 30 14 43 31 43 7 1 11 6 10
12 -2 7 6 10 17 8 18 -4 25 6 21 29 -1 5 4 4 12 -2 9 -8 17 -8 24 -1 8 8 13 7
18 -2 6 -8 4 -10 -6 -4 -12 8 -12 6 0 -8 16 -20 22 -22 18 -4 -1 6 3 11 8 10
6 -1 10 14 9 33 -1 19 2 32 7 29 4 -3 6 -12 2 -20 -3 -9 0 -21 6 -29 6 -7 9
-16 6 -19 -3 -4 -2 -4 2 -1 8 5 9 9 12 35 0 5 6 7 11 4 6 -4 7 -11 4 -17 -4
-7 -2 -8 5 -4 6 4 9 11 7 15 -3 4 -1 13 4 21 5 9 5 19 -1 26 -14 17 17 12 34
-5 9 -10 9 -12 -2 -9 -9 2 -16 -6 -17 -17 -2 -16 -2 -17 2 -2 5 15 8 16 20 6
9 -7 14 -8 13 -3 -1 5 1 17 6 27 4 10 2 24 -6 35 -13 15 -12 16 4 3 15 -12 21
-9 19 10 -1 3 6 6 13 6 11 0 12 -4 4 -14 -9 -9 -8 -13 0 -13 7 0 9 -5 5 -11
-4 -8 -9 -7 -16 2 -8 11 -9 10 -5 -2 3 -9 1 -21 -5 -27 -6 -6 -5 -12 4 -17 7
-5 10 -5 6 0 -4 4 -3 14 3 22 10 11 15 11 27 1 13 -11 14 -11 7 2 -13 21 -15
40 -4 40 6 0 8 4 5 9 -3 4 4 17 17 27 l22 19 -18 -22 c-11 -12 -14 -24 -9 -27
6 -3 12 -1 14 6 8 23 33 16 35 -10 1 -18 -1 -21 -8 -11 -6 10 -8 7 -6 -10 1
-23 1 -23 18 -2 9 11 19 17 23 14 3 -4 -2 -16 -11 -27 -18 -21 -18 -21 2 -4
11 9 25 17 30 17 6 1 10 14 10 31 0 16 7 35 15 42 12 11 12 11 2 -3 -15 -21
-3 -32 17 -17 9 7 13 9 9 4 -4 -5 -3 -18 3 -29 6 -10 7 -17 2 -14 -5 3 -9 -2
-9 -12 0 -10 6 -18 12 -18 7 0 10 7 7 16 -3 11 0 10 13 -4 14 -17 16 -17 11
-2 -4 9 -2 17 3 17 6 0 10 -8 10 -17 0 -15 2 -16 10 -3 5 9 5 19 -1 26 -7 8
-6 14 1 19 6 4 9 2 8 -3 -2 -6 2 -10 7 -10 6 0 9 4 7 10 -1 5 2 7 7 4 5 -3 8
-14 6 -24 -2 -9 -4 -24 -5 -32 -1 -10 -4 -9 -10 5 -7 16 -9 16 -9 4 -1 -9 7
-25 17 -36 9 -10 14 -14 10 -9 -21 27 -4 27 20 1 15 -17 24 -26 20 -21 -18 22
-6 29 12 7 11 -13 20 -18 20 -12 0 18 -5 26 -13 23 -5 -1 -6 2 -2 7 3 6 -3 8
-14 6 -13 -2 -18 1 -15 10 3 7 0 16 -7 21 -9 5 -10 2 -5 -12 5 -14 4 -16 -4
-8 -6 6 -8 19 -4 28 6 17 8 17 16 2 5 -9 13 -14 19 -11 5 4 6 -2 2 -12 -3 -10
-3 -15 2 -11 4 4 15 2 23 -5 13 -10 15 -9 9 5 -3 10 -1 20 6 24 7 4 9 4 5 -1
-4 -4 -3 -16 3 -27 10 -19 11 -19 32 -1 12 10 19 14 14 9 -4 -5 0 -19 8 -32
13 -20 13 -22 -3 -19 -10 1 -16 10 -14 21 2 18 2 18 -13 0 -11 -15 -15 -16
-15 -5 -1 10 -4 9 -11 -4 -6 -10 -8 -21 -5 -24 3 -4 6 -1 6 6 0 7 5 9 10 6 6
-4 7 -12 3 -18 -5 -9 -3 -9 8 0 23 19 26 19 48 -1 20 -18 20 -18 16 4 -2 12
-9 28 -15 35 -8 9 -8 15 0 20 6 4 9 3 8 -2 -1 -4 5 -22 15 -39 9 -17 13 -35 9
-40 -4 -5 0 -3 9 4 9 6 19 8 23 4 4 -4 17 -7 29 -7 13 -1 21 -6 19 -15 -3 -11
0 -11 12 0 14 11 16 8 17 -21 l1 -34 8 35 c25 125 116 227 243 272 63 23 135
19 203 -12z m-831 -61 c-4 -5 -1 -9 5 -9 6 0 8 -5 5 -11 -9 -13 -15 -7 -20 20
-2 12 0 19 6 16 5 -4 7 -11 4 -16z m-95 1 c0 13 1 13 10 0 5 -8 10 -21 10 -29
0 -11 -4 -11 -18 2 -10 10 -22 14 -26 10 -4 -4 -4 1 0 11 5 14 9 15 15 4 7
-10 9 -10 9 2z m-161 -54 c-3 -3 -11 5 -18 17 -13 21 -12 21 5 5 10 -10 16
-20 13 -22z m-61 -27 c-3 -8 -7 -3 -11 10 -4 17 -3 21 5 13 5 -5 8 -16 6 -23z
m-27 -16 c-12 -20 -14 -14 -5 12 4 9 9 14 11 11 3 -2 0 -13 -6 -23z m-44 -5
c2 -17 0 -19 -7 -8 -5 8 -6 18 -4 22 8 12 10 10 11 -14z m689 -19 c1 -5 2 -14
3 -20 0 -5 5 -8 10 -4 6 3 8 14 6 25 -2 12 0 18 6 15 5 -4 7 -10 4 -15 -3 -5
-1 -11 5 -15 5 -3 10 0 10 7 0 8 5 6 11 -5 6 -9 14 -15 18 -13 4 3 8 -1 8 -8
0 -11 -23 -15 -34 -6 -2 2 -12 3 -23 4 -12 0 -25 8 -30 16 -9 13 -10 13 -10 0
-1 -11 -3 -11 -11 3 -6 10 -8 21 -5 24 3 4 6 1 6 -6 0 -7 5 -9 10 -6 6 4 7 12
4 18 -4 7 -3 8 2 4 5 -5 10 -13 10 -18z m-849 -106 c-3 -10 -5 -4 -5 12 0 17
2 24 5 18 2 -7 2 -21 0 -30z m-44 -34 c-24 -25 -31 -28 -36 -16 -3 9 2 21 11
29 15 12 16 11 3 -4 -7 -10 -9 -18 -4 -18 6 0 19 11 29 25 10 13 20 22 23 19
3 -2 -9 -18 -26 -35z m-118 -99 c-16 -16 -30 -28 -33 -26 -5 6 51 64 57 59 3
-2 -8 -17 -24 -33z m2796 -36 c100 -30 179 -139 179 -246 0 -16 5 -49 11 -73
9 -35 8 -54 -5 -98 -25 -86 -125 -167 -208 -167 -33 0 -27 -17 17 -50 25 -18
41 -38 38 -46 -6 -17 -49 -22 -93 -11 -41 11 -103 54 -95 68 4 5 -8 9 -24 9
-44 0 -129 35 -164 67 -24 23 -28 24 -19 7 14 -26 5 -37 -18 -24 -10 5 -21 6
-26 2 -5 -4 -6 -3 -2 2 9 11 -9 36 -26 36 -6 0 -4 -5 4 -10 8 -5 10 -10 5 -10
-6 0 -18 9 -28 20 -9 11 -22 20 -29 20 -6 0 -3 -7 8 -15 10 -8 15 -15 11 -15
-4 0 -19 12 -33 27 -23 25 -61 42 -48 22 3 -5 9 -7 14 -4 5 3 11 1 14 -4 11
-16 -26 -5 -39 12 -12 17 -31 24 -21 9 3 -5 -1 -9 -8 -9 -9 0 -12 7 -8 16 5
14 3 14 -11 2 -14 -11 -18 -11 -23 4 -5 13 -9 14 -15 3 -7 -10 -9 -9 -9 4 0
17 -15 19 -38 4 -7 -4 -12 -4 -11 1 3 20 -2 27 -11 13 -6 -10 -10 -11 -10 -2
0 6 -9 12 -21 12 -11 0 -17 -5 -14 -10 4 -6 11 -7 17 -4 7 5 8 2 3 -5 -5 -9
-14 -6 -33 11 -14 13 -21 16 -17 8 8 -13 7 -13 -8 -1 -12 10 -17 10 -17 2 0
-8 -6 -7 -16 3 -21 21 -30 20 -13 -1 13 -16 12 -17 -3 -4 -10 7 -18 10 -18 5
0 -5 -7 0 -15 10 -8 11 -15 16 -15 10 0 -5 -5 -2 -10 6 -8 13 -10 13 -10 1 0
-11 -4 -10 -16 5 -8 10 -13 12 -9 4 4 -10 2 -9 -8 3 -8 9 -21 17 -29 17 -42 0
-44 61 -4 119 19 26 50 51 97 76 38 20 92 51 121 71 29 19 58 32 65 30 7 -3
15 0 19 6 5 7 2 8 -6 3 -9 -5 -11 -4 -6 4 5 7 12 9 19 3 17 -12 36 -9 47 8 7
11 10 11 10 2 0 -7 4 -11 9 -8 5 3 14 -1 21 -9 7 -8 16 -13 20 -10 5 3 22 -12
40 -32 19 -23 29 -30 25 -18 -4 11 1 7 10 -9 12 -20 20 -25 28 -17 8 8 16 6
30 -7 10 -9 22 -16 26 -15 3 1 5 -8 3 -20 -2 -15 6 -7 25 23 47 73 126 137
197 159 76 25 108 25 177 5z m-637 -42 c3 -5 -1 -9 -9 -9 -8 0 -12 4 -9 9 3 4
7 8 9 8 2 0 6 -4 9 -8z m-960 -180 c3 -5 -1 -9 -9 -9 -8 0 -12 4 -9 9 3 4 7 8
9 8 2 0 6 -4 9 -8z m-57 -124 c-3 -8 -6 -5 -6 6 -1 11 2 17 5 13 3 -3 4 -12 1
-19z m-73 -30 c-3 -5 -10 -6 -15 -3 -5 4 -9 1 -9 -6 0 -7 -3 -10 -6 -6 -9 9 3
24 20 24 8 0 13 -4 10 -9z m-134 -34 c0 -8 -19 -13 -24 -6 -3 5 1 9 9 9 8 0
15 -2 15 -3z m-183 -69 c0 -8 -3 -13 -5 -10 -3 3 -12 -1 -20 -7 -8 -7 -21 -13
-29 -14 -11 -2 -12 1 -2 12 6 7 15 12 19 9 4 -3 13 2 20 10 15 19 17 19 17 0z
m2663 -130 c1 19 2 19 10 -1 5 -12 14 -25 20 -29 8 -5 7 -11 -2 -23 -11 -15
-11 -15 4 -4 14 11 19 10 32 -9 12 -18 13 -26 3 -38 -8 -12 -6 -11 9 1 26 22
52 5 31 -21 -11 -14 -10 -14 6 -2 15 12 21 9 18 -11 0 -4 7 -4 16 -1 10 4 14
2 9 -5 -3 -6 -2 -13 4 -17 6 -4 7 -12 3 -18 -4 -8 -1 -7 9 1 14 11 18 10 26
-5 6 -10 10 -22 10 -26 0 -5 3 -11 6 -14 7 -7 -1 33 -8 46 -3 5 1 12 10 15 9
3 12 11 8 18 -4 8 -3 10 2 5 5 -5 9 -14 9 -20 1 -7 7 -11 15 -9 12 3 12 1 3
-9 -8 -8 -9 -19 -2 -38 7 -18 7 -23 0 -16 -6 6 -12 20 -14 32 -2 13 -7 26 -11
30 -5 5 -5 -5 -1 -22 4 -16 8 -35 8 -42 0 -7 4 -10 9 -7 4 3 8 0 8 -6 0 -7 5
-6 14 2 8 7 11 18 8 23 -9 14 -12 38 -4 30 4 -4 7 -12 7 -18 1 -7 7 -11 14 -9
8 1 10 -2 4 -10 -4 -7 -7 -22 -5 -33 l2 -20 -9 20 c-6 12 -10 14 -10 6 -1 -8
11 -30 26 -50 16 -20 27 -39 25 -44 -1 -4 3 -6 9 -5 6 2 13 -6 15 -17 6 -40
10 -53 23 -69 7 -8 10 -19 7 -24 -3 -5 1 -9 9 -9 10 0 11 5 5 17 -6 12 -5 17
5 17 7 0 11 -7 7 -15 -4 -11 -1 -13 9 -7 8 5 5 -2 -6 -15 -11 -13 -14 -20 -7
-16 6 4 12 2 12 -4 0 -6 5 -8 12 -4 7 4 8 3 4 -5 -4 -6 -11 -9 -15 -7 -10 6
-4 -65 6 -75 4 -4 8 3 8 16 0 12 -4 21 -8 18 -5 -3 -4 4 2 16 7 11 13 21 14
21 5 0 0 -77 -6 -86 -7 -12 -4 -34 7 -52 4 -7 5 -21 2 -30 -4 -10 2 -7 15 8
14 18 18 19 11 5 -6 -11 -11 -24 -12 -30 -1 -5 -7 -9 -13 -7 -6 2 -5 -3 2 -12
7 -8 10 -20 7 -25 -4 -5 -2 -12 4 -16 6 -4 8 -10 5 -15 -3 -5 -1 -11 4 -14 9
-6 8 45 -2 61 -3 5 0 10 7 10 8 0 12 -10 10 -24 -1 -12 2 -25 7 -28 5 -3 3
-14 -3 -25 -7 -10 -17 -16 -23 -12 -6 3 -6 0 1 -9 6 -8 10 -24 9 -36 -1 -15 2
-20 9 -14 7 6 11 2 11 -14 0 -19 -3 -21 -15 -12 -12 10 -13 9 -3 -3 6 -8 10
-30 8 -47 -1 -18 1 -30 6 -27 5 3 6 11 3 17 -4 7 -3 9 1 4 11 -10 13 -97 3
-91 -5 3 -6 9 -3 14 3 5 2 11 -3 13 -4 3 -7 -31 -6 -75 1 -55 6 -83 15 -89 11
-7 9 -9 -6 -10 l-20 -1 20 -6 20 -5 -20 -8 -20 -8 20 -1 20 -1 -20 -9 c-18 -8
-18 -9 -2 -9 10 -1 15 -6 12 -11 -4 -6 -9 -8 -13 -6 -4 2 -7 -18 -8 -44 0 -27
3 -47 7 -45 5 4 5 -32 -1 -45 -1 -3 -1 -18 -1 -35 2 -23 0 -27 -8 -15 -7 9
-11 10 -11 3 0 -6 4 -14 10 -18 5 -3 7 -12 4 -20 -4 -8 -9 -13 -13 -10 -9 5
-7 -47 2 -62 4 -6 2 -15 -4 -19 -8 -5 -9 -3 -4 6 5 9 4 11 -3 6 -8 -5 -8 -15
-1 -33 8 -22 8 -24 -5 -14 -12 10 -14 9 -9 -8 3 -12 10 -18 17 -14 6 3 3 -3
-7 -14 -9 -11 -14 -24 -10 -28 5 -5 1 -4 -8 3 -14 10 -15 7 -14 -28 1 -23 -3
-37 -8 -33 -7 4 -8 -1 -3 -13 6 -15 5 -16 -5 -7 -9 10 -10 15 0 27 8 10 9 16
1 21 -6 4 -9 1 -8 -7 2 -7 -2 -12 -8 -11 -7 1 -10 -9 -7 -25 3 -26 3 -26 -6
-4 -13 29 -19 28 -14 -2 3 -13 1 -26 -4 -29 -5 -3 -9 4 -9 16 1 13 -4 21 -11
19 -7 -1 -13 4 -13 10 -1 7 -8 2 -16 -12 -15 -24 -15 -24 -10 -2 4 20 2 21
-12 10 -13 -11 -15 -11 -10 3 5 14 0 16 -28 14 -19 -1 -32 0 -30 2 10 10 -18
64 -38 74 -20 11 -20 11 2 -10 12 -12 22 -25 22 -28 0 -4 -11 4 -25 17 -19 18
-22 26 -14 36 9 11 5 16 -14 23 -14 5 -28 15 -33 22 -4 8 -3 10 4 5 7 -4 12
-2 12 4 0 14 -29 70 -36 70 -2 0 2 -13 11 -30 9 -16 13 -30 11 -30 -9 0 -36
57 -30 63 9 9 -7 48 -17 42 -5 -3 -6 2 -2 11 5 13 3 15 -8 9 -12 -7 -12 -6 -1
7 10 13 10 18 1 24 -8 4 -9 3 -5 -4 11 -18 0 -14 -15 5 -12 14 -12 16 0 8 11
-6 12 -2 7 21 -4 16 -13 32 -19 36 -9 6 -8 8 2 8 9 0 7 5 -6 18 -10 9 -13 13
-7 9 9 -6 11 -2 7 12 -3 12 -10 18 -17 14 -6 -4 -4 2 4 12 8 10 10 16 4 12 -7
-4 -15 0 -18 9 -3 8 -2 12 4 9 6 -3 7 1 4 9 -3 9 -11 13 -18 9 -6 -4 -6 0 2 9
10 13 10 18 1 24 -8 5 -9 3 -4 -6 5 -9 4 -11 -4 -6 -9 6 -9 11 -1 21 8 9 6 17
-5 29 -11 11 -13 16 -4 16 9 0 8 4 -2 13 -22 18 -47 53 -31 43 14 -8 12 28 -3
41 -4 5 -5 1 0 -7 5 -8 4 -12 0 -7 -5 4 -10 17 -12 30 -2 12 -8 26 -13 31 -5
5 -5 18 0 31 7 18 5 27 -8 37 -16 12 -16 11 -2 -7 14 -19 14 -19 -3 -6 -13 10
-14 17 -7 26 8 10 8 15 -1 21 -8 5 -9 3 -4 -6 5 -9 4 -11 -4 -6 -9 6 -9 11 1
24 7 9 8 13 3 10 -6 -4 -17 3 -25 15 -12 20 -12 21 4 8 14 -12 16 -12 10 3 -3
9 -11 16 -18 16 -7 0 -6 3 2 9 10 6 8 10 -9 14 -18 5 -20 9 -10 21 9 11 9 16
0 22 -8 5 -9 3 -4 -6 5 -9 4 -11 -4 -6 -9 6 -9 11 -1 21 8 10 8 15 -1 21 -8 5
-9 3 -4 -6 5 -8 4 -11 -3 -6 -6 4 -8 14 -5 23 5 12 3 14 -8 8 -12 -7 -12 -6
-1 8 12 13 10 19 -12 38 -14 12 -23 26 -20 31 4 5 -6 23 -22 39 -15 16 -28 39
-29 50 -1 12 -14 31 -29 42 -22 16 -25 22 -14 36 7 9 8 13 4 9 -5 -4 -17 7
-27 25 -9 17 -23 31 -30 29 -9 -2 -9 2 2 14 9 12 9 15 2 10 -8 -4 -13 -1 -13
9 0 9 -8 29 -18 43 -29 42 -63 132 -50 132 6 0 9 3 5 6 -11 11 47 50 103 71
57 21 162 48 169 44 2 -2 7 3 11 9 4 7 19 13 33 13 14 1 23 5 20 10 -4 6 12
11 30 8 4 0 7 4 7 9 0 6 5 10 11 10 5 0 7 -6 4 -12 -4 -7 0 -5 8 5 11 14 16
15 20 5 3 -8 6 -5 7 7 l1 20 9 -20 9 -20 1 20z m46 8 c-2 -2 8 -17 22 -33 25
-29 46 -34 23 -6 -9 11 -9 16 1 22 7 4 10 4 6 -1 -4 -4 -3 -14 2 -21 6 -6 10
-16 9 -20 -4 -21 2 -35 11 -29 6 4 8 10 6 14 -3 4 1 8 8 8 7 0 13 -6 13 -13 0
-7 -4 -11 -8 -8 -4 2 -10 0 -13 -5 -12 -18 13 -21 30 -4 16 16 17 16 12 1 -9
-22 2 -30 21 -15 14 11 14 10 2 -5 -12 -16 -9 -22 11 -19 3 0 5 -7 4 -17 -3
-18 -41 -24 -41 -7 -1 13 -75 86 -75 74 0 -13 -64 60 -66 76 -1 6 5 12 12 12
8 0 12 -2 10 -4z m-2975 -16 c-6 -8 -7 -18 -3 -22 4 -5 1 -5 -6 -1 -10 6 -10
11 -1 22 6 8 14 14 16 14 3 0 0 -6 -6 -13z m-27 -23 c3 -8 2 -12 -4 -9 -6 3
-10 10 -10 16 0 14 7 11 14 -7z m-107 -66 c-3 -8 -6 -5 -6 6 -1 11 2 17 5 13
3 -3 4 -12 1 -19z m-890 -114 c-3 -3 -12 -4 -19 -1 -8 3 -5 6 6 6 11 1 17 -2
13 -5z m4260 -57 c-3 -8 -1 -20 4 -28 7 -12 9 -12 10 1 1 8 1 19 0 23 -1 5 3
6 7 3 5 -3 8 -17 7 -31 -2 -14 1 -27 6 -31 5 -3 9 0 9 7 0 7 6 4 14 -7 9 -12
11 -23 5 -28 -16 -17 -10 -29 9 -15 14 11 15 11 5 -1 -19 -21 -16 -35 4 -19
15 12 16 12 8 -1 -6 -8 -10 -18 -10 -22 0 -5 -3 -8 -7 -8 -5 0 -7 1 -6 3 1 1
-4 12 -11 25 -10 18 -10 27 0 38 10 13 6 18 -13 15 -14 -2 -57 60 -52 74 4 8
8 15 11 15 3 0 3 -6 0 -13z m-4174 -92 c-7 -21 -13 -19 -13 6 0 11 4 18 10 14
5 -3 7 -12 3 -20z m374 11 c4 -4 4 -7 -2 -6 -22 5 -36 -1 -29 -12 4 -7 3 -8
-4 -4 -6 4 -9 13 -6 20 6 15 28 16 41 2z m3953 -292 c0 -8 -19 -13 -24 -6 -3
5 1 9 9 9 8 0 15 -2 15 -3z m37 -429 c0 -8 -4 -12 -9 -9 -5 3 -6 10 -3 15 9
13 12 11 12 -6z m332 -221 c-7 -8 -7 -14 0 -18 6 -4 7 -14 4 -23 -4 -9 -2 -14
3 -11 5 4 9 -14 9 -38 1 -47 -8 -51 -11 -4 -1 16 -7 37 -14 47 -9 15 -10 14
-4 -7 4 -14 8 -42 9 -63 1 -21 8 -43 16 -48 11 -7 10 -9 -6 -10 -11 0 -14 -3
-7 -6 6 -2 12 -9 12 -14 0 -6 -5 -7 -11 -3 -8 5 -8 1 0 -13 6 -11 8 -23 5 -25
-2 -3 -7 -16 -10 -29 -12 -56 -16 -75 -17 -91 -1 -10 -4 -18 -7 -18 -4 0 -7
-6 -8 -12 -4 -35 -10 -56 -22 -83 -7 -16 -12 -34 -11 -39 1 -5 -6 -3 -15 5
-16 13 -16 12 -4 -11 12 -22 12 -24 -3 -12 -13 11 -15 10 -10 -10 5 -23 5 -23
-10 -3 -8 11 -13 24 -10 29 4 5 1 6 -6 2 -9 -6 -9 -11 0 -22 6 -8 8 -14 4 -14
-4 0 -2 -8 6 -17 12 -17 12 -17 -6 -1 -21 19 -29 68 -11 68 7 0 8 3 1 8 -14
10 -14 92 -1 92 6 0 4 5 -4 10 -13 9 -13 10 0 10 13 0 13 1 0 10 -8 5 -10 10
-4 10 7 0 14 9 17 20 3 11 2 18 -2 15 -4 -2 -8 3 -8 11 0 8 6 13 12 10 12 -4
14 29 2 41 -4 3 3 18 15 32 13 14 16 20 8 14 -13 -10 -16 -8 -16 7 0 10 4 16
8 13 5 -2 7 7 4 21 -3 19 -1 23 11 19 12 -5 12 -7 1 -14 -9 -6 -9 -9 -1 -9 19
0 24 17 8 30 -16 13 -11 30 8 30 8 0 8 -3 -1 -9 -11 -6 -10 -10 4 -15 10 -4
15 -4 11 0 -4 4 -1 14 6 22 10 13 9 14 -2 8 -9 -6 -12 -5 -9 5 3 8 12 13 19
11 8 -2 6 5 -6 19 -11 12 -14 19 -6 14 11 -6 13 -4 8 9 -4 11 -3 15 4 11 6 -4
8 -13 6 -19 -3 -7 1 -13 8 -13 14 0 10 21 -9 47 -6 8 -6 12 -2 8 10 -9 38 11
31 21 -2 4 2 8 10 8 11 0 12 -4 4 -13z m-336 -19 c-3 -9 -8 -14 -10 -11 -3 3
-2 9 2 15 9 16 15 13 8 -4z m-161 -434 c8 11 9 11 6 1 -4 -16 -22 -18 -25 -2
-1 7 0 6 4 -1 4 -8 8 -7 15 2z"/>
<path d="M2784 5063 c-7 -25 -8 -25 -15 -8 -6 15 -8 16 -8 4 -1 -9 5 -22 12
-28 10 -8 14 -7 14 2 0 6 3 22 7 35 4 12 5 22 2 22 -3 0 -9 -12 -12 -27z"/>
<path d="M2890 5070 c6 -11 5 -21 -1 -27 -8 -8 -7 -13 0 -18 6 -3 11 -3 10 2
-1 4 -1 10 1 13 9 25 7 47 -5 47 -10 0 -11 -5 -5 -17z"/>
<path d="M2497 4947 c-3 -9 -12 -16 -18 -15 -7 2 -18 -8 -26 -22 -11 -21 -13
-22 -13 -6 0 21 -13 14 -16 -8 -2 -16 24 -15 34 1 4 5 15 9 24 8 12 -2 15 2
10 13 -5 15 -4 15 12 3 15 -12 17 -12 14 0 -2 8 2 13 9 12 7 -2 10 4 6 13 -4
11 -8 12 -13 4 -6 -9 -9 -9 -12 1 -3 9 -6 8 -11 -4z"/>
<path d="M1916 4382 c-3 -5 1 -15 8 -21 11 -10 14 -9 12 3 -3 21 -13 29 -20
18z"/>
<path d="M2814 4149 c-8 -14 14 -19 25 -6 8 10 7 14 -5 14 -8 0 -17 -4 -20 -8z"/>
<path d="M1770 4128 c-19 -30 -21 -46 -7 -55 7 -3 9 -3 5 2 -4 4 -2 15 4 23
11 12 22 52 15 52 -1 0 -9 -10 -17 -22z"/>
<path d="M2550 3991 c0 -7 -4 -10 -9 -6 -5 3 -12 1 -15 -4 -4 -5 -2 -12 3 -15
11 -7 36 22 27 31 -3 3 -6 1 -6 -6z"/>
<path d="M2436 3925 c-3 -9 -11 -13 -17 -9 -8 5 -9 3 -4 -5 6 -10 11 -9 23 3
9 8 13 18 10 21 -3 3 -8 -1 -12 -10z"/>
<path d="M2275 3829 c-4 -6 -5 -12 -2 -15 2 -3 7 2 10 11 7 17 1 20 -8 4z"/>
<path d="M2171 3764 c0 -11 3 -14 6 -6 3 7 2 16 -1 19 -3 4 -6 -2 -5 -13z"/>
<path d="M1810 3725 c-12 -15 -11 -16 10 -19 6 0 15 -8 20 -16 8 -12 10 -12
16 3 4 10 1 24 -5 30 -9 9 -10 7 -5 -8 7 -18 6 -18 -9 -6 -9 7 -14 17 -11 22
9 15 -3 10 -16 -6z"/>
<path d="M1936 3707 c3 -10 9 -15 12 -12 3 3 0 11 -7 18 -10 9 -11 8 -5 -6z"/>
<path d="M4421 4624 c6 -8 14 -12 17 -9 3 3 14 -2 24 -12 10 -9 18 -13 18 -8
0 4 8 1 18 -6 14 -11 13 -9 -2 9 -11 12 -21 20 -24 17 -3 -3 -12 1 -20 7 -8 7
-21 13 -29 14 -11 2 -12 -1 -2 -12z"/>
<path d="M4640 4146 c0 -2 7 -7 16 -10 8 -3 12 -2 9 4 -6 10 -25 14 -25 6z"/>
<path d="M5380 3536 c0 -2 8 -10 18 -17 15 -13 16 -12 3 4 -13 16 -21 21 -21
13z"/>
<path d="M5565 3121 c-3 -5 -2 -12 3 -15 5 -3 9 1 9 9 0 17 -3 19 -12 6z"/>
<path d="M5606 2997 c3 -10 9 -15 12 -12 3 3 0 11 -7 18 -10 9 -11 8 -5 -6z"/>
<path d="M5871 2403 c-1 -17 16 -25 25 -12 4 7 3 9 -4 5 -5 -3 -13 0 -15 6 -4
9 -6 10 -6 1z"/>
<path d="M5680 4077 c0 -2 14 -16 32 -33 31 -29 31 -29 12 -2 -16 23 -44 45
-44 35z"/>
<path d="M5808 3964 c12 -8 20 -19 18 -23 -3 -4 2 -8 10 -8 11 0 9 6 -8 24
-12 13 -26 23 -32 23 -6 0 0 -7 12 -16z"/>
<path d="M6456 2772 c-3 -5 1 -9 9 -9 8 0 12 4 9 9 -3 4 -7 8 -9 8 -2 0 -6 -4
-9 -8z"/>
</g>
</svg>
