<?xml version="1.0" standalone="no"?>
<!DOCTYPE svg PUBLIC "-//W3C//DTD SVG 20010904//EN"
 "http://www.w3.org/TR/2001/REC-SVG-20010904/DTD/svg10.dtd">
<svg version="1.0" xmlns="http://www.w3.org/2000/svg"
 width="176.000000pt" height="176.000000pt" viewBox="0 0 176.000000 176.000000"
 preserveAspectRatio="xMidYMid meet">

<g transform="translate(0.000000,176.000000) scale(0.100000,-0.100000)"
fill="#000000" stroke="none">
<path d="M0 880 l0 -880 880 0 880 0 0 880 0 880 -880 0 -880 0 0 -880z m1315
785 c50 -24 103 -55 119 -68 l30 -24 -44 -41 c-36 -33 -42 -44 -32 -54 14 -14
16 -74 2 -83 -5 -3 -10 -2 -10 3 0 5 -15 9 -34 10 -18 1 -59 15 -91 33 -47 26
-65 30 -102 26 -34 -4 -43 -2 -39 8 3 8 -2 14 -12 14 -17 1 -63 8 -72 11 -3 1
-8 2 -11 2 -3 -1 -6 6 -6 15 0 8 14 24 31 34 29 18 32 18 43 3 7 -10 10 -20 8
-24 -8 -13 32 -41 49 -34 21 8 20 17 -4 39 -11 10 -20 26 -20 35 0 10 -7 23
-15 30 -9 7 -14 19 -11 27 3 7 1 13 -3 13 -17 0 1 40 26 60 36 28 88 19 198
-35z m189 -122 c1 -63 -24 -193 -36 -193 -12 0 -10 64 2 76 18 18 32 121 21
161 -8 27 -7 33 1 25 7 -7 12 -38 12 -69z m-626 -94 c19 -44 -2 -34 -44 21
-21 28 -42 50 -47 50 -4 0 -5 5 -2 10 9 15 77 -45 93 -81z m-60 -2 c10 -3 6
-5 -10 -6 -27 -1 -58 -24 -58 -42 0 -6 18 -28 40 -50 21 -21 34 -39 27 -39 -7
0 -18 5 -25 12 -9 9 -12 8 -12 -5 0 -9 8 -20 17 -26 21 -11 13 -24 -10 -15
-29 11 -59 71 -56 111 4 46 62 119 67 84 2 -11 11 -22 20 -24z m279 -54 c11
-27 -6 -25 -51 8 -25 18 -46 34 -46 35 0 10 93 -31 97 -43z m330 5 c-3 -7 -5
-2 -5 12 0 14 2 19 5 13 2 -7 2 -19 0 -25z m-410 -10 c51 -37 73 -73 73 -118
0 -33 -26 -43 -37 -13 -6 15 -15 26 -58 74 -8 9 -15 22 -15 29 0 7 -7 18 -17
25 -9 7 -13 17 -9 23 10 17 12 16 63 -20z m-157 -7 c0 -17 -6 -31 -15 -35 -24
-9 -30 22 -10 44 23 26 25 25 25 -9z m367 -37 c-3 -3 -12 -4 -19 -1 -8 3 -5 6
6 6 11 1 17 -2 13 -5z m-47 -14 c0 -5 -2 -10 -4 -10 -3 0 -8 5 -11 10 -3 6 -1
10 4 10 6 0 11 -4 11 -10z m-410 -90 c15 -8 20 -21 20 -48 -1 -35 -1 -36 -16
-17 -15 19 -15 19 -9 -10 l7 -30 -23 35 c-13 19 -27 37 -31 38 -5 2 -5 9 -2
15 5 8 3 8 -6 0 -13 -12 -9 -43 17 -141 l6 -24 -41 21 c-23 12 -49 20 -59 20
-15 -1 -16 -2 -2 -6 11 -3 15 -11 12 -24 -3 -10 -1 -19 3 -19 5 0 8 -20 6 -43
-3 -31 1 -49 13 -61 25 -24 132 -96 144 -96 21 0 10 -18 -18 -30 -16 -6 -55
-29 -87 -50 -64 -42 -89 -43 -52 -3 l23 26 -27 -18 -28 -17 0 40 c0 34 -3 39
-18 35 -18 -4 -19 -2 -25 62 -1 14 -5 25 -9 25 -5 0 -8 9 -8 21 0 11 -7 27
-15 35 -17 17 -31 62 -22 70 3 4 30 10 59 14 l53 8 -57 1 c-51 1 -58 3 -58 21
0 11 7 20 15 20 21 0 92 80 133 150 l35 60 24 -35 c13 -19 32 -39 43 -45z
m610 3 c1 -10 7 -34 14 -55 13 -35 12 -36 -8 -30 -12 3 -42 5 -68 4 -27 -1
-48 1 -48 4 0 8 93 93 103 94 4 0 7 -8 7 -17z m40 -10 c-1 -24 -2 -26 -11 -10
-5 9 -7 22 -4 27 10 17 15 11 15 -17z m-42 -130 c-27 -47 -28 -49 -28 -37 0
11 38 74 45 74 2 0 -5 -17 -17 -37z m-68 -101 c0 -10 -7 -27 -15 -38 -13 -18
-14 -18 -9 6 9 38 13 50 19 50 3 0 5 -8 5 -18z m-120 -71 c0 -18 -17 -20 -36
-6 -18 14 -18 14 9 15 15 0 27 -4 27 -9z m80 -7 c0 -8 -5 -12 -10 -9 -6 4 -8
11 -5 16 9 14 15 11 15 -7z m-373 -162 c16 -10 66 -132 58 -140 -3 -3 -32 -8
-65 -10 -59 -4 -60 -4 -60 22 0 39 -27 75 -50 69 -29 -8 -25 21 6 46 27 21 87
28 111 13z"/>
<path d="M740 1374 c0 -6 7 -19 15 -30 8 -10 14 -14 14 -9 0 6 -6 19 -14 29
-8 11 -15 15 -15 10z"/>
</g>
</svg>
